<mxfile host="app.diagrams.net" agent="Mozilla/5.0 (Windows NT 10.0; Win64; x64) AppleWebKit/537.36 (KHTML, like Gecko) Chrome/136.0.0.0 Safari/537.36" version="26.1.1">
  <diagram name="Page-1" id="iHMQD82h89YxhZXLuiBv">
    <mxGraphModel dx="1744" dy="1951" grid="0" gridSize="10" guides="1" tooltips="1" connect="1" arrows="1" fold="1" page="1" pageScale="1" pageWidth="850" pageHeight="1100" math="0" shadow="0">
      <root>
        <mxCell id="0" />
        <mxCell id="1" parent="0" />
        <mxCell id="e9pb8Xm3Xgm0mw2G64Aa-1" value="" style="outlineConnect=0;dashed=0;verticalLabelPosition=bottom;verticalAlign=top;align=center;html=1;shape=mxgraph.aws3.lambda_function;fillColor=#F58534;gradientColor=none;" vertex="1" parent="1">
          <mxGeometry x="232" y="372" width="69" height="87" as="geometry" />
        </mxCell>
        <mxCell id="e9pb8Xm3Xgm0mw2G64Aa-2" value="" style="sketch=0;outlineConnect=0;fontColor=#232F3E;gradientColor=none;fillColor=#232F3D;strokeColor=none;dashed=0;verticalLabelPosition=bottom;verticalAlign=top;align=center;html=1;fontSize=12;fontStyle=0;aspect=fixed;pointerEvents=1;shape=mxgraph.aws4.authenticated_user;" vertex="1" parent="1">
          <mxGeometry x="81" y="91" width="78" height="78" as="geometry" />
        </mxCell>
        <mxCell id="e9pb8Xm3Xgm0mw2G64Aa-3" value="" style="sketch=0;points=[[0,0,0],[0.25,0,0],[0.5,0,0],[0.75,0,0],[1,0,0],[0,1,0],[0.25,1,0],[0.5,1,0],[0.75,1,0],[1,1,0],[0,0.25,0],[0,0.5,0],[0,0.75,0],[1,0.25,0],[1,0.5,0],[1,0.75,0]];outlineConnect=0;fontColor=#232F3E;fillColor=#7AA116;strokeColor=#ffffff;dashed=0;verticalLabelPosition=bottom;verticalAlign=top;align=center;html=1;fontSize=12;fontStyle=0;aspect=fixed;shape=mxgraph.aws4.resourceIcon;resIcon=mxgraph.aws4.s3;" vertex="1" parent="1">
          <mxGeometry x="467" y="464" width="78" height="78" as="geometry" />
        </mxCell>
        <mxCell id="e9pb8Xm3Xgm0mw2G64Aa-4" value="" style="sketch=0;points=[[0,0,0],[0.25,0,0],[0.5,0,0],[0.75,0,0],[1,0,0],[0,1,0],[0.25,1,0],[0.5,1,0],[0.75,1,0],[1,1,0],[0,0.25,0],[0,0.5,0],[0,0.75,0],[1,0.25,0],[1,0.5,0],[1,0.75,0]];outlineConnect=0;fontColor=#232F3E;fillColor=#C925D1;strokeColor=#ffffff;dashed=0;verticalLabelPosition=bottom;verticalAlign=top;align=center;html=1;fontSize=12;fontStyle=0;aspect=fixed;shape=mxgraph.aws4.resourceIcon;resIcon=mxgraph.aws4.dynamodb;" vertex="1" parent="1">
          <mxGeometry x="730" y="464" width="78" height="78" as="geometry" />
        </mxCell>
        <mxCell id="e9pb8Xm3Xgm0mw2G64Aa-5" value="" style="sketch=0;points=[[0,0,0],[0.25,0,0],[0.5,0,0],[0.75,0,0],[1,0,0],[0,1,0],[0.25,1,0],[0.5,1,0],[0.75,1,0],[1,1,0],[0,0.25,0],[0,0.5,0],[0,0.75,0],[1,0.25,0],[1,0.5,0],[1,0.75,0]];outlineConnect=0;fontColor=#232F3E;fillColor=#E7157B;strokeColor=#ffffff;dashed=0;verticalLabelPosition=bottom;verticalAlign=top;align=center;html=1;fontSize=12;fontStyle=0;aspect=fixed;shape=mxgraph.aws4.resourceIcon;resIcon=mxgraph.aws4.api_gateway;" vertex="1" parent="1">
          <mxGeometry x="225" y="204" width="78" height="78" as="geometry" />
        </mxCell>
        <mxCell id="e9pb8Xm3Xgm0mw2G64Aa-6" value="" style="sketch=0;points=[[0,0,0],[0.25,0,0],[0.5,0,0],[0.75,0,0],[1,0,0],[0,1,0],[0.25,1,0],[0.5,1,0],[0.75,1,0],[1,1,0],[0,0.25,0],[0,0.5,0],[0,0.75,0],[1,0.25,0],[1,0.5,0],[1,0.75,0]];outlineConnect=0;fontColor=#232F3E;fillColor=#E7157B;strokeColor=#ffffff;dashed=0;verticalLabelPosition=bottom;verticalAlign=top;align=center;html=1;fontSize=12;fontStyle=0;aspect=fixed;shape=mxgraph.aws4.resourceIcon;resIcon=mxgraph.aws4.sns;" vertex="1" parent="1">
          <mxGeometry x="97" y="386" width="78" height="78" as="geometry" />
        </mxCell>
        <mxCell id="e9pb8Xm3Xgm0mw2G64Aa-7" value="" style="endArrow=classic;html=1;rounded=0;entryX=0.5;entryY=0;entryDx=0;entryDy=0;entryPerimeter=0;flowAnimation=1;" edge="1" parent="1" source="e9pb8Xm3Xgm0mw2G64Aa-2" target="e9pb8Xm3Xgm0mw2G64Aa-5">
          <mxGeometry width="50" height="50" relative="1" as="geometry">
            <mxPoint x="237" y="121" as="sourcePoint" />
            <mxPoint x="116" y="222" as="targetPoint" />
            <Array as="points">
              <mxPoint x="264" y="130" />
            </Array>
          </mxGeometry>
        </mxCell>
        <mxCell id="e9pb8Xm3Xgm0mw2G64Aa-8" value="" style="endArrow=classic;html=1;rounded=0;exitX=0.5;exitY=1;exitDx=0;exitDy=0;exitPerimeter=0;entryX=0.5;entryY=0;entryDx=0;entryDy=0;entryPerimeter=0;flowAnimation=1;" edge="1" parent="1" source="e9pb8Xm3Xgm0mw2G64Aa-5" target="e9pb8Xm3Xgm0mw2G64Aa-1">
          <mxGeometry width="50" height="50" relative="1" as="geometry">
            <mxPoint x="110.5" y="332" as="sourcePoint" />
            <mxPoint x="235" y="390" as="targetPoint" />
            <Array as="points" />
          </mxGeometry>
        </mxCell>
        <mxCell id="e9pb8Xm3Xgm0mw2G64Aa-9" value="" style="endArrow=classic;html=1;rounded=0;exitX=0.5;exitY=1;exitDx=0;exitDy=0;exitPerimeter=0;flowAnimation=1;" edge="1" parent="1" source="e9pb8Xm3Xgm0mw2G64Aa-1" target="e9pb8Xm3Xgm0mw2G64Aa-3">
          <mxGeometry width="50" height="50" relative="1" as="geometry">
            <mxPoint x="350" y="391" as="sourcePoint" />
            <mxPoint x="351" y="494" as="targetPoint" />
            <Array as="points">
              <mxPoint x="267" y="500" />
            </Array>
          </mxGeometry>
        </mxCell>
        <mxCell id="e9pb8Xm3Xgm0mw2G64Aa-11" value="" style="endArrow=classic;html=1;rounded=0;exitX=1;exitY=0.5;exitDx=0;exitDy=0;exitPerimeter=0;entryX=0;entryY=0.5;entryDx=0;entryDy=0;entryPerimeter=0;strokeColor=default;flowAnimation=1;" edge="1" parent="1" source="e9pb8Xm3Xgm0mw2G64Aa-3" target="e9pb8Xm3Xgm0mw2G64Aa-4">
          <mxGeometry width="50" height="50" relative="1" as="geometry">
            <mxPoint x="617" y="410" as="sourcePoint" />
            <mxPoint x="763" y="493" as="targetPoint" />
            <Array as="points" />
          </mxGeometry>
        </mxCell>
        <mxCell id="e9pb8Xm3Xgm0mw2G64Aa-12" value="user&amp;nbsp;&lt;div&gt;&lt;br&gt;&lt;/div&gt;" style="text;html=1;align=center;verticalAlign=middle;resizable=0;points=[];autosize=1;strokeColor=none;fillColor=none;" vertex="1" parent="1">
          <mxGeometry x="159" y="79" width="45" height="41" as="geometry" />
        </mxCell>
        <mxCell id="e9pb8Xm3Xgm0mw2G64Aa-13" value="&lt;b&gt;Api-gateway&lt;/b&gt;&lt;div&gt;&lt;br&gt;&lt;/div&gt;" style="text;html=1;align=center;verticalAlign=middle;resizable=0;points=[];autosize=1;strokeColor=none;fillColor=none;" vertex="1" parent="1">
          <mxGeometry x="267" y="282" width="89" height="41" as="geometry" />
        </mxCell>
        <mxCell id="e9pb8Xm3Xgm0mw2G64Aa-14" value="" style="outlineConnect=0;dashed=0;verticalLabelPosition=bottom;verticalAlign=top;align=center;html=1;shape=mxgraph.aws3.lambda_function;fillColor=#F58534;gradientColor=none;" vertex="1" parent="1">
          <mxGeometry x="247" y="562" width="69" height="87" as="geometry" />
        </mxCell>
        <mxCell id="e9pb8Xm3Xgm0mw2G64Aa-15" value="" style="endArrow=classic;html=1;rounded=0;exitX=0.5;exitY=1;exitDx=0;exitDy=0;exitPerimeter=0;entryX=1;entryY=0.5;entryDx=0;entryDy=0;entryPerimeter=0;flowAnimation=1;" edge="1" parent="1" source="e9pb8Xm3Xgm0mw2G64Aa-3" target="e9pb8Xm3Xgm0mw2G64Aa-14">
          <mxGeometry width="50" height="50" relative="1" as="geometry">
            <mxPoint x="400" y="612" as="sourcePoint" />
            <mxPoint x="450" y="562" as="targetPoint" />
            <Array as="points">
              <mxPoint x="509" y="605" />
            </Array>
          </mxGeometry>
        </mxCell>
        <mxCell id="e9pb8Xm3Xgm0mw2G64Aa-17" value="" style="endArrow=classic;html=1;rounded=0;exitX=0.5;exitY=1;exitDx=0;exitDy=0;exitPerimeter=0;entryX=0.5;entryY=1;entryDx=0;entryDy=0;entryPerimeter=0;flowAnimation=1;" edge="1" parent="1" source="e9pb8Xm3Xgm0mw2G64Aa-14" target="e9pb8Xm3Xgm0mw2G64Aa-4">
          <mxGeometry width="50" height="50" relative="1" as="geometry">
            <mxPoint x="298" y="709" as="sourcePoint" />
            <mxPoint x="810" y="673" as="targetPoint" />
            <Array as="points">
              <mxPoint x="282" y="678" />
              <mxPoint x="772" y="675" />
            </Array>
          </mxGeometry>
        </mxCell>
        <mxCell id="e9pb8Xm3Xgm0mw2G64Aa-18" value="" style="outlineConnect=0;dashed=0;verticalLabelPosition=bottom;verticalAlign=top;align=center;html=1;shape=mxgraph.aws3.lambda_function;fillColor=#F58534;gradientColor=none;" vertex="1" parent="1">
          <mxGeometry x="251" y="715" width="69" height="87" as="geometry" />
        </mxCell>
        <mxCell id="e9pb8Xm3Xgm0mw2G64Aa-19" value="" style="endArrow=classic;html=1;rounded=0;exitX=0.75;exitY=1;exitDx=0;exitDy=0;exitPerimeter=0;flowAnimation=1;" edge="1" parent="1" source="e9pb8Xm3Xgm0mw2G64Aa-4" target="e9pb8Xm3Xgm0mw2G64Aa-18">
          <mxGeometry width="50" height="50" relative="1" as="geometry">
            <mxPoint x="488" y="784" as="sourcePoint" />
            <mxPoint x="699" y="770" as="targetPoint" />
            <Array as="points">
              <mxPoint x="795" y="756" />
            </Array>
          </mxGeometry>
        </mxCell>
        <mxCell id="e9pb8Xm3Xgm0mw2G64Aa-20" value="" style="endArrow=classic;html=1;rounded=0;exitX=0.5;exitY=0;exitDx=0;exitDy=0;exitPerimeter=0;flowAnimation=1;" edge="1" parent="1" source="e9pb8Xm3Xgm0mw2G64Aa-6" target="e9pb8Xm3Xgm0mw2G64Aa-2">
          <mxGeometry width="50" height="50" relative="1" as="geometry">
            <mxPoint x="37.504716981132106" y="298.9999999999999" as="sourcePoint" />
            <mxPoint x="34.995283018867894" y="698" as="targetPoint" />
          </mxGeometry>
        </mxCell>
        <mxCell id="e9pb8Xm3Xgm0mw2G64Aa-23" value="" style="endArrow=classic;html=1;rounded=0;flowAnimation=1;" edge="1" parent="1" target="e9pb8Xm3Xgm0mw2G64Aa-6">
          <mxGeometry width="50" height="50" relative="1" as="geometry">
            <mxPoint x="231" y="427" as="sourcePoint" />
            <mxPoint x="206.5" y="469" as="targetPoint" />
          </mxGeometry>
        </mxCell>
        <mxCell id="e9pb8Xm3Xgm0mw2G64Aa-25" value="&lt;b&gt;route-&amp;nbsp;&lt;/b&gt;&lt;div&gt;&lt;b&gt;POST&amp;nbsp; /upload&lt;/b&gt;&lt;/div&gt;" style="text;html=1;align=center;verticalAlign=middle;resizable=0;points=[];autosize=1;strokeColor=none;fillColor=none;" vertex="1" parent="1">
          <mxGeometry x="290" y="351" width="100" height="41" as="geometry" />
        </mxCell>
        <mxCell id="e9pb8Xm3Xgm0mw2G64Aa-27" value="&lt;span style=&quot;forced-color-adjust: none; color: rgb(0, 0, 0); font-family: Helvetica; font-style: normal; font-variant-ligatures: normal; font-variant-caps: normal; letter-spacing: normal; orphans: 2; text-align: center; text-indent: 0px; text-transform: none; widows: 2; word-spacing: 0px; -webkit-text-stroke-width: 0px; white-space: nowrap; text-decoration-thickness: initial; text-decoration-style: initial; text-decoration-color: initial; background-color: light-dark(#ffffff, var(--ge-dark-color, #121212));&quot;&gt;&lt;b style=&quot;&quot;&gt;&lt;font style=&quot;font-size: 14px;&quot;&gt;route-&amp;nbsp;&lt;/font&gt;&lt;/b&gt;&lt;/span&gt;&lt;div style=&quot;forced-color-adjust: none; color: rgb(0, 0, 0); font-family: Helvetica; font-style: normal; font-variant-ligatures: normal; font-variant-caps: normal; letter-spacing: normal; orphans: 2; text-align: center; text-indent: 0px; text-transform: none; widows: 2; word-spacing: 0px; -webkit-text-stroke-width: 0px; white-space: nowrap; text-decoration-thickness: initial; text-decoration-style: initial; text-decoration-color: initial;&quot;&gt;&lt;span style=&quot;forced-color-adjust: none; background-color: light-dark(#ffffff, var(--ge-dark-color, #121212));&quot;&gt;&lt;b style=&quot;&quot;&gt;&lt;font style=&quot;font-size: 14px;&quot;&gt;POST&amp;nbsp; / update&lt;/font&gt;&lt;/b&gt;&lt;/span&gt;&lt;/div&gt;" style="text;whiteSpace=wrap;html=1;" vertex="1" parent="1">
          <mxGeometry x="320.61438706341914" y="535.3071576286766" width="110" height="51" as="geometry" />
        </mxCell>
        <mxCell id="e9pb8Xm3Xgm0mw2G64Aa-28" value="&lt;b style=&quot;forced-color-adjust: none; color: rgb(0, 0, 0); font-family: Helvetica; font-size: 12px; font-style: normal; font-variant-ligatures: normal; font-variant-caps: normal; letter-spacing: normal; orphans: 2; text-align: center; text-indent: 0px; text-transform: none; widows: 2; word-spacing: 0px; -webkit-text-stroke-width: 0px; white-space: nowrap; background-color: rgb(251, 251, 251); text-decoration-thickness: initial; text-decoration-style: initial; text-decoration-color: initial;&quot;&gt;route-&amp;nbsp;&lt;/b&gt;&lt;div style=&quot;forced-color-adjust: none; color: rgb(0, 0, 0); font-family: Helvetica; font-size: 12px; font-style: normal; font-variant-ligatures: normal; font-variant-caps: normal; font-weight: 400; letter-spacing: normal; orphans: 2; text-align: center; text-indent: 0px; text-transform: none; widows: 2; word-spacing: 0px; -webkit-text-stroke-width: 0px; white-space: nowrap; background-color: rgb(251, 251, 251); text-decoration-thickness: initial; text-decoration-style: initial; text-decoration-color: initial;&quot;&gt;&lt;b style=&quot;forced-color-adjust: none;&quot;&gt;GET&amp;nbsp; /notification&lt;/b&gt;&lt;/div&gt;" style="text;whiteSpace=wrap;html=1;" vertex="1" parent="1">
          <mxGeometry x="331.9990929457721" y="707.0024517463237" width="110" height="51" as="geometry" />
        </mxCell>
        <mxCell id="e9pb8Xm3Xgm0mw2G64Aa-35" value="&lt;b&gt;S3-bucket&lt;/b&gt;&lt;div&gt;&lt;b&gt;stores the uer input file&lt;/b&gt;&lt;/div&gt;" style="text;html=1;align=center;verticalAlign=middle;resizable=0;points=[];autosize=1;strokeColor=none;fillColor=none;" vertex="1" parent="1">
          <mxGeometry x="425" y="415" width="151" height="41" as="geometry" />
        </mxCell>
        <mxCell id="e9pb8Xm3Xgm0mw2G64Aa-36" value="&lt;b&gt;DynamoDB&lt;/b&gt;&lt;div&gt;&lt;b&gt;exactrs raw data&amp;nbsp; from s3&lt;/b&gt;&lt;/div&gt;" style="text;html=1;align=center;verticalAlign=middle;resizable=0;points=[];autosize=1;strokeColor=none;fillColor=none;" vertex="1" parent="1">
          <mxGeometry x="676" y="420" width="162" height="41" as="geometry" />
        </mxCell>
        <mxCell id="e9pb8Xm3Xgm0mw2G64Aa-37" value="" style="endArrow=classic;html=1;rounded=0;flowAnimation=0;exitX=1;exitY=0.75;exitDx=0;exitDy=0;exitPerimeter=0;strokeColor=default;" edge="1" parent="1" source="e9pb8Xm3Xgm0mw2G64Aa-5">
          <mxGeometry width="50" height="50" relative="1" as="geometry">
            <mxPoint x="315" y="257" as="sourcePoint" />
            <mxPoint x="249" y="768" as="targetPoint" />
            <Array as="points">
              <mxPoint x="349" y="260" />
              <mxPoint x="342" y="52" />
              <mxPoint x="32" y="52" />
              <mxPoint x="32" y="768" />
            </Array>
          </mxGeometry>
        </mxCell>
        <mxCell id="e9pb8Xm3Xgm0mw2G64Aa-38" value="" style="endArrow=classic;html=1;rounded=0;flowAnimation=0;" edge="1" parent="1">
          <mxGeometry width="50" height="50" relative="1" as="geometry">
            <mxPoint x="299" y="203" as="sourcePoint" />
            <mxPoint x="253" y="627" as="targetPoint" />
            <Array as="points">
              <mxPoint x="299" y="77" />
              <mxPoint x="71" y="77" />
              <mxPoint x="71" y="627" />
            </Array>
          </mxGeometry>
        </mxCell>
        <mxCell id="e9pb8Xm3Xgm0mw2G64Aa-39" value="" style="endArrow=classic;html=1;rounded=0;exitX=0.5;exitY=0;exitDx=0;exitDy=0;exitPerimeter=0;entryX=1;entryY=1;entryDx=0;entryDy=0;entryPerimeter=0;flowAnimation=1;" edge="1" parent="1" source="e9pb8Xm3Xgm0mw2G64Aa-14" target="e9pb8Xm3Xgm0mw2G64Aa-6">
          <mxGeometry width="50" height="50" relative="1" as="geometry">
            <mxPoint x="144" y="564" as="sourcePoint" />
            <mxPoint x="194" y="514" as="targetPoint" />
          </mxGeometry>
        </mxCell>
        <mxCell id="e9pb8Xm3Xgm0mw2G64Aa-40" value="&lt;h1&gt;&lt;b&gt;&lt;font style=&quot;color: rgb(102, 102, 255); line-height: 31.2px;&quot; face=&quot;Comic Sans MS&quot;&gt;1&lt;/font&gt;&lt;/b&gt;&lt;/h1&gt;" style="text;html=1;align=center;verticalAlign=middle;resizable=0;points=[];autosize=1;strokeColor=none;fillColor=none;" vertex="1" parent="1">
          <mxGeometry x="274" y="306" width="33" height="76" as="geometry" />
        </mxCell>
        <mxCell id="e9pb8Xm3Xgm0mw2G64Aa-41" value="&lt;h1 style=&quot;forced-color-adjust: none; color: rgb(0, 0, 0); font-family: Helvetica; font-style: normal; font-variant-ligatures: normal; font-variant-caps: normal; letter-spacing: normal; orphans: 2; text-align: center; text-indent: 0px; text-transform: none; widows: 2; word-spacing: 0px; -webkit-text-stroke-width: 0px; white-space: nowrap; background-color: rgb(251, 251, 251); text-decoration-thickness: initial; text-decoration-style: initial; text-decoration-color: initial;&quot;&gt;&lt;b style=&quot;forced-color-adjust: none;&quot;&gt;&lt;font face=&quot;Comic Sans MS&quot; style=&quot;forced-color-adjust: none; color: rgb(102, 102, 255); line-height: 31.2px;&quot;&gt;2&lt;/font&gt;&lt;/b&gt;&lt;/h1&gt;" style="text;whiteSpace=wrap;html=1;" vertex="1" parent="1">
          <mxGeometry x="318.49869140625003" y="591.0046128627233" width="43" height="86" as="geometry" />
        </mxCell>
        <mxCell id="e9pb8Xm3Xgm0mw2G64Aa-44" value="&lt;h1 style=&quot;forced-color-adjust: none; color: rgb(0, 0, 0); font-family: Helvetica; font-style: normal; font-variant-ligatures: normal; font-variant-caps: normal; letter-spacing: normal; orphans: 2; text-indent: 0px; text-transform: none; widows: 2; word-spacing: 0px; -webkit-text-stroke-width: 0px; white-space: nowrap; text-decoration-thickness: initial; text-decoration-style: initial; text-decoration-color: initial; text-align: center; background-color: rgb(251, 251, 251);&quot;&gt;&lt;b style=&quot;forced-color-adjust: none;&quot;&gt;&lt;font face=&quot;Comic Sans MS&quot; style=&quot;forced-color-adjust: none; color: rgb(102, 102, 255); line-height: 31.2px;&quot;&gt;3&lt;/font&gt;&lt;/b&gt;&lt;/h1&gt;" style="text;whiteSpace=wrap;html=1;" vertex="1" parent="1">
          <mxGeometry x="320.6129771205358" y="753.9974700055805" width="43" height="86" as="geometry" />
        </mxCell>
        <mxCell id="e9pb8Xm3Xgm0mw2G64Aa-45" value="" style="endArrow=classic;html=1;rounded=0;exitX=0.377;exitY=0;exitDx=0;exitDy=0;exitPerimeter=0;entryX=0.5;entryY=1;entryDx=0;entryDy=0;entryPerimeter=0;flowAnimation=1;" edge="1" parent="1" source="e9pb8Xm3Xgm0mw2G64Aa-18" target="e9pb8Xm3Xgm0mw2G64Aa-6">
          <mxGeometry width="50" height="50" relative="1" as="geometry">
            <mxPoint x="169" y="729" as="sourcePoint" />
            <mxPoint x="219" y="679" as="targetPoint" />
          </mxGeometry>
        </mxCell>
        <mxCell id="e9pb8Xm3Xgm0mw2G64Aa-46" value="" style="rounded=1;arcSize=10;dashed=1;strokeColor=#F59D56;fillColor=none;gradientColor=none;dashPattern=8 4;strokeWidth=2;" vertex="1" parent="1">
          <mxGeometry x="1" y="-27" width="841" height="840" as="geometry" />
        </mxCell>
        <mxCell id="e9pb8Xm3Xgm0mw2G64Aa-47" value="&lt;b&gt;AP-south-1a&lt;/b&gt;" style="text;html=1;align=center;verticalAlign=middle;resizable=0;points=[];autosize=1;strokeColor=none;fillColor=none;" vertex="1" parent="1">
          <mxGeometry x="43" y="-19" width="89" height="26" as="geometry" />
        </mxCell>
      </root>
    </mxGraphModel>
  </diagram>
</mxfile>
